<?xml version="1.0" standalone="no"?>
<!DOCTYPE svg PUBLIC "-//W3C//DTD SVG 20010904//EN"
 "http://www.w3.org/TR/2001/REC-SVG-20010904/DTD/svg10.dtd">
<svg version="1.0" xmlns="http://www.w3.org/2000/svg"
 width="640.000000pt" height="212.000000pt" viewBox="0 0 640.000000 212.000000"
 preserveAspectRatio="xMidYMid meet">

<g transform="translate(0.000000,212.000000) scale(0.100000,-0.100000)"
fill="#000000" stroke="none">
<path d="M1418 1961 c-73 -24 -145 -70 -198 -127 -46 -50 -97 -149 -106 -206
-15 -87 -24 -26 -24 153 l0 192 -72 -7 c-281 -27 -532 -176 -682 -404 -206
-312 -195 -737 26 -1037 307 -415 902 -493 1305 -170 198 159 321 394 335 640
l3 60 -220 3 -221 2 -11 -70 c-14 -94 -56 -172 -128 -245 -192 -191 -465 -193
-654 -4 -216 215 -158 588 111 725 53 27 148 54 189 54 24 0 27 -4 34 -47 8
-56 33 -134 47 -148 6 -7 7 -4 3 6 -3 8 -1 42 5 75 5 32 12 70 14 84 8 45 47
124 84 170 51 63 89 100 101 100 6 0 11 4 11 10 0 17 163 88 227 98 93 16 218
5 234 -21 4 -6 13 -6 24 0 14 8 12 13 -19 37 -49 37 -123 73 -176 85 -69 16
-178 12 -242 -8z"/>
<path d="M2623 1432 c-6 -4 -13 -21 -15 -37 -3 -27 -7 -30 -42 -33 -22 -2 -60
2 -84 8 -56 14 -66 2 -45 -49 15 -35 14 -118 -3 -193 -8 -37 16 -46 53 -19 18
13 46 22 78 23 l50 3 5 -75 c5 -70 7 -75 29 -78 32 -5 41 12 41 85 0 34 3 64
8 66 4 3 31 1 60 -4 32 -5 63 -4 78 1 23 9 25 13 19 55 -6 36 -3 52 14 81 19
31 20 39 9 62 -13 26 -17 27 -101 30 -80 3 -87 4 -87 23 0 46 -34 72 -67 51z
m-14 -166 c29 -34 -23 -69 -73 -50 -16 6 -22 45 -9 57 12 13 70 7 82 -7z m176
-21 c0 -29 -2 -30 -45 -30 -35 0 -45 4 -48 18 -7 37 6 48 50 45 40 -3 43 -5
43 -33z"/>
<path d="M4468 1411 c-11 -15 -28 -21 -74 -23 -55 -3 -59 -5 -62 -29 -3 -25
-2 -26 54 -25 38 1 59 -3 61 -11 3 -9 -11 -13 -50 -13 -42 0 -56 -4 -61 -17
-10 -24 13 -34 62 -27 28 4 42 3 42 -5 0 -7 -20 -11 -49 -11 -38 0 -56 -6 -78
-24 -42 -36 -22 -52 47 -37 58 13 69 9 50 -14 -26 -31 -71 -47 -112 -41 -35 6
-38 4 -38 -17 0 -13 9 -32 20 -42 31 -28 85 -12 137 40 33 33 43 38 43 24 0
-17 8 -19 70 -19 60 0 70 -3 71 -17 2 -34 -2 -48 -23 -66 -17 -14 -18 -20 -8
-32 32 -39 90 4 90 65 0 40 0 40 39 40 40 0 75 22 68 43 -2 6 -23 11 -48 11
-60 1 -66 20 -7 24 46 3 78 26 78 57 0 6 -49 9 -141 7 -99 -3 -139 0 -134 7 4
7 47 11 111 11 97 0 104 1 104 20 0 19 -7 20 -100 20 -102 0 -134 14 -57 25
23 3 71 5 106 3 64 -3 79 4 62 31 -6 9 -39 15 -106 19 -77 4 -102 9 -116 23
-24 24 -34 24 -51 0z m139 -228 c3 -7 -18 -12 -62 -15 -74 -3 -80 -1 -63 19
14 17 119 14 125 -4z"/>
<path d="M5298 1368 l-3 -63 -77 -3 -78 -3 0 40 0 40 -107 -4 c-85 -3 -108 -7
-116 -20 -6 -11 -4 -22 7 -34 12 -13 16 -38 16 -94 0 -77 6 -92 34 -81 12 4
16 25 18 87 l3 82 43 3 42 3 -1 -78 -1 -78 -8 54 c-9 57 -21 77 -43 68 -9 -3
-16 -28 -20 -74 -7 -72 -27 -103 -69 -103 -16 0 -19 -6 -16 -32 4 -46 35 -48
82 -8 l36 32 26 -21 c28 -22 69 -28 79 -12 6 10 -21 41 -36 41 -5 0 -9 9 -9
20 0 31 33 24 53 -10 10 -16 26 -31 35 -31 33 -2 57 3 79 16 26 17 33 5 33
-55 0 -30 5 -40 20 -45 32 -10 40 3 40 69 0 35 3 84 6 110 6 40 10 46 30 46
31 0 66 35 62 63 -2 16 -9 21 -23 19 -68 -12 -70 -10 -70 41 0 36 -5 52 -19
63 -36 26 -45 18 -48 -48z m-6 -136 c26 -26 -47 -82 -109 -82 -35 0 -56 62
-30 89 15 15 122 10 139 -7z"/>
<path d="M3426 1409 c-12 -8 -82 -10 -206 -7 l-187 4 -1 -143 c0 -81 -6 -160
-13 -184 -12 -38 -11 -43 7 -56 13 -10 29 -12 49 -7 17 4 114 8 218 8 103 1
187 3 187 6 1 3 2 85 4 183 2 144 0 181 -11 193 -17 17 -22 17 -47 3z m4 -181
c0 -68 -4 -129 -8 -136 -7 -9 -47 -12 -168 -10 l-159 3 -3 116 c-2 97 0 120
13 133 14 13 43 16 171 16 l154 0 0 -122z"/>
<path d="M3126 1314 c-7 -19 19 -36 51 -34 45 3 55 1 51 -12 -3 -7 -27 -15
-54 -18 -41 -4 -49 -8 -49 -25 0 -17 8 -20 48 -23 39 -3 47 -6 47 -23 0 -16
-7 -19 -44 -19 -35 0 -48 -5 -60 -22 -9 -12 -16 -26 -16 -30 0 -5 67 -8 149
-8 127 0 150 2 155 16 11 29 6 44 -15 44 -18 0 -19 3 -9 15 10 12 9 16 -4 21
-11 4 -14 13 -10 29 5 22 2 24 -37 27 -67 5 -62 28 5 28 43 0 56 3 56 15 0 8
1 18 3 23 1 4 -57 7 -130 8 -98 1 -133 -2 -137 -12z m202 -131 c-4 -22 -48
-31 -48 -10 0 19 10 27 32 27 13 0 18 -6 16 -17z"/>
<path d="M5872 1398 c-7 -7 -12 -17 -12 -23 0 -14 -88 -99 -117 -114 -36 -18
-29 7 12 45 49 45 39 61 -42 70 -37 4 -78 3 -92 -3 -22 -7 -26 -14 -23 -43 1
-19 5 -102 8 -183 5 -114 9 -150 20 -154 27 -10 44 17 44 73 0 52 1 55 40 79
23 14 44 35 49 47 7 20 14 21 137 20 79 -1 142 -6 162 -14 31 -12 35 -11 53
11 10 13 19 33 19 45 0 20 -5 23 -44 23 -57 0 -128 41 -161 94 -27 42 -34 46
-53 27z m-172 -72 c0 -16 -18 -31 -27 -22 -8 8 5 36 17 36 5 0 10 -6 10 -14z
m227 -28 c33 -23 42 -37 23 -39 -49 -3 -112 0 -117 5 -6 6 44 55 56 56 3 0 20
-10 38 -22z m-232 -93 c0 -10 -6 -20 -12 -22 -8 -3 -13 5 -13 22 0 17 5 25 13
23 6 -3 12 -13 12 -23z"/>
<path d="M3780 1369 c0 -6 5 -19 10 -30 27 -50 -81 -156 -135 -131 -32 15 -55
-3 -55 -42 0 -35 25 -66 53 -66 22 0 83 28 135 63 26 17 50 26 61 22 10 -3 45
-29 77 -57 60 -52 107 -78 143 -78 34 0 87 55 101 105 14 52 10 61 -18 46 -26
-14 -152 -14 -189 0 -15 5 -42 20 -60 32 -29 20 -32 25 -26 63 4 34 2 45 -18
63 -23 22 -79 29 -79 10z"/>
<path d="M5872 1188 c-18 -18 -15 -30 15 -53 15 -13 23 -27 19 -33 -14 -23
-31 -11 -58 38 -31 56 -53 63 -69 23 -9 -24 -7 -30 10 -42 31 -20 26 -41 -9
-41 -29 0 -60 -33 -45 -48 4 -4 81 -8 171 -9 149 -1 164 0 164 16 0 27 -21 41
-62 41 -49 0 -48 14 2 34 45 18 50 34 20 61 -20 18 -21 18 -52 -12 l-31 -31
-21 31 c-25 36 -37 42 -54 25z"/>
<path d="M4507 1079 c-11 -6 -32 -8 -48 -5 -35 7 -50 -17 -26 -41 20 -20 72
-9 92 20 25 36 18 47 -18 26z"/>
<path d="M2533 681 c-60 -28 -87 -84 -80 -163 9 -103 63 -152 156 -145 47 3
59 9 88 40 38 42 42 62 13 70 -11 3 -20 1 -20 -3 0 -5 -12 -22 -26 -39 -53
-63 -151 -27 -168 62 -23 121 87 205 166 127 33 -34 58 -39 58 -12 0 35 -71
82 -123 82 -12 0 -41 -9 -64 -19z"/>
<path d="M5582 675 c-36 -30 -39 -43 -16 -86 15 -29 14 -31 -15 -58 -35 -33
-46 -67 -32 -103 22 -58 99 -78 160 -42 28 17 31 17 49 1 38 -35 67 -9 32 28
-20 21 -21 28 -11 56 6 17 8 35 5 40 -10 17 -33 9 -40 -13 -7 -22 -8 -21 -35
11 l-28 34 29 34 c34 39 37 62 13 92 -29 35 -74 37 -111 6z m83 -36 c4 -13 0
-27 -11 -40 -22 -25 -30 -24 -50 6 -13 20 -14 28 -4 40 19 22 57 19 65 -6z
m-15 -161 l33 -41 -22 -19 c-13 -10 -32 -18 -44 -18 -49 0 -75 64 -40 102 24
26 36 23 73 -24z"/>
<path d="M5916 690 c-63 -19 -96 -73 -96 -157 0 -66 21 -117 61 -146 34 -24
112 -27 155 -4 30 16 67 73 58 89 -11 18 -40 6 -52 -21 -26 -59 -114 -65 -155
-9 -27 37 -34 116 -13 160 31 64 109 78 156 28 46 -49 81 -34 44 19 -30 43
-95 59 -158 41z"/>
<path d="M2787 683 c-7 -13 -1 -289 7 -301 3 -6 13 -9 21 -5 11 4 15 23 15 77
l0 71 80 -3 80 -4 0 -69 c0 -62 2 -69 20 -69 19 0 20 7 20 155 0 148 -1 155
-20 155 -18 0 -20 -7 -20 -65 l0 -65 -80 0 -80 0 0 65 c0 58 -2 65 -19 65 -11
0 -22 -3 -24 -7z"/>
<path d="M3112 533 c3 -140 5 -156 21 -159 16 -2 17 11 17 157 0 153 -1 159
-20 159 -20 0 -20 -5 -18 -157z"/>
<path d="M3220 536 c0 -131 2 -155 16 -160 9 -3 20 -4 25 0 5 3 9 58 9 122 l0
117 78 -117 c69 -105 100 -137 116 -120 3 3 6 74 6 159 0 146 -1 153 -20 153
-18 0 -20 -8 -22 -116 l-3 -117 -78 117 c-64 96 -81 116 -102 116 l-25 0 0
-154z"/>
<path d="M3625 678 c-2 -7 -29 -77 -58 -156 -30 -78 -51 -145 -47 -147 18 -11
40 9 53 48 l14 42 69 0 69 0 15 -43 c13 -38 42 -63 57 -48 6 6 -21 80 -85 234
-29 71 -37 82 -58 82 -14 0 -27 -6 -29 -12z m75 -159 c0 -5 -20 -9 -45 -9 -25
0 -45 3 -45 8 0 4 10 35 22 69 l22 62 23 -61 c13 -33 23 -64 23 -69z"/>
<path d="M4048 553 c-4 -200 -13 -184 96 -181 77 3 91 6 94 21 3 15 -6 17 -72
17 l-76 0 0 140 c0 132 -1 140 -19 140 -19 0 -20 -9 -23 -137z"/>
<path d="M4330 537 c0 -85 3 -156 6 -160 3 -3 12 -3 20 0 11 4 14 36 14 159 0
147 -1 154 -20 154 -19 0 -20 -7 -20 -153z"/>
<path d="M4450 536 c0 -85 4 -157 8 -160 19 -12 31 14 34 74 l3 65 73 3 c64 3
72 5 72 22 0 18 -7 20 -76 20 l-75 0 3 48 3 47 88 3 c68 2 87 6 87 17 0 12
-20 15 -110 15 l-110 0 0 -154z"/>
<path d="M4732 533 l3 -158 110 0 c97 0 110 2 113 18 3 15 -6 17 -92 17 l-96
0 0 55 0 54 88 3 c69 2 87 6 87 18 0 12 -18 16 -88 18 l-88 3 3 47 3 47 93 3
c73 2 92 6 92 17 0 12 -21 15 -115 15 l-116 0 3 -157z"/>
<path d="M5230 530 c0 -153 1 -160 20 -160 18 0 20 7 20 64 l0 64 76 4 c69 3
79 6 100 31 33 39 33 99 -1 132 -22 23 -32 25 -120 25 l-95 0 0 -160z m184
104 c22 -21 20 -50 -4 -74 -16 -16 -33 -20 -80 -20 l-60 0 0 55 0 55 64 0 c45
0 69 -5 80 -16z"/>
</g>
</svg>
