<?xml version="1.0" standalone="no"?>
<!DOCTYPE svg PUBLIC "-//W3C//DTD SVG 20010904//EN"
 "http://www.w3.org/TR/2001/REC-SVG-20010904/DTD/svg10.dtd">
<svg version="1.0" xmlns="http://www.w3.org/2000/svg"
 width="162.000000pt" height="41.000000pt" viewBox="0 0 162.000000 41.000000"
 preserveAspectRatio="xMidYMid meet">

<g transform="translate(0.000000,41.000000) scale(0.100000,-0.100000)"
fill="#000000" stroke="none">
<path d="M196 272 c5 -4 42 -39 82 -77 l73 -69 21 21 c23 23 16 47 -12 40 -11
-3 -37 13 -71 44 -34 31 -63 49 -78 49 -14 0 -21 -4 -15 -8z"/>
<path d="M383 203 l77 -78 77 78 78 77 -81 0 c-69 0 -84 -3 -99 -20 -14 -16
-16 -23 -7 -32 9 -9 17 -6 35 10 13 12 36 22 52 22 l30 0 -43 -42 -42 -43 -53
53 c-35 34 -61 52 -77 52 -22 0 -15 -9 53 -77z"/>
<path d="M640 230 c0 -47 2 -50 25 -50 23 0 25 3 25 50 0 47 -2 50 -25 50 -23
0 -25 -3 -25 -50z"/>
<path d="M710 258 c0 -16 3 -19 9 -10 5 9 15 2 35 -28 30 -46 46 -51 46 -15 0
41 -28 75 -61 75 -23 0 -29 -4 -29 -22z"/>
<path d="M840 230 c0 -47 2 -50 25 -50 23 0 25 3 25 50 0 47 -2 50 -25 50 -23
0 -25 -3 -25 -50z"/>
<path d="M900 265 c0 -8 2 -15 4 -15 2 0 6 7 10 15 3 8 1 15 -4 15 -6 0 -10
-7 -10 -15z"/>
<path d="M940 230 c0 -43 3 -50 20 -50 17 0 20 7 20 50 0 43 -3 50 -20 50 -17
0 -20 -7 -20 -50z"/>
<path d="M1068 273 c15 -6 16 -55 0 -71 -9 -9 -9 -12 0 -12 7 0 18 11 24 25
14 30 48 34 48 5 0 -11 -7 -20 -15 -20 -8 0 -15 -5 -15 -11 0 -6 8 -9 18 -7
11 2 18 14 20 36 3 29 1 32 -22 32 -37 0 -32 18 7 23 19 2 10 4 -23 5 -30 0
-49 -2 -42 -5z"/>
<path d="M1190 265 c0 -11 11 -15 40 -15 29 0 40 4 40 15 0 11 -11 15 -40 15
-29 0 -40 -4 -40 -15z m53 -2 c-7 -2 -19 -2 -25 0 -7 3 -2 5 12 5 14 0 19 -2
13 -5z"/>
<path d="M1345 270 c3 -5 1 -10 -4 -10 -6 0 -12 -12 -12 -27 -2 -24 -2 -25 -6
-5 -6 31 -19 28 -18 -5 0 -32 15 -41 66 -42 34 -1 35 0 37 39 2 24 -2 40 -8
40 -6 0 -8 5 -5 10 4 6 -7 10 -25 10 -18 0 -29 -4 -25 -10z m15 -60 c0 -5 -5
-10 -11 -10 -5 0 -7 5 -4 10 3 6 8 10 11 10 2 0 4 -4 4 -10z"/>
<path d="M1180 222 c0 -27 20 -42 55 -42 37 0 54 15 48 41 -5 20 -23 27 -23 9
0 -5 -5 -10 -11 -10 -5 0 -7 5 -4 10 3 6 0 10 -9 10 -8 0 -17 -6 -20 -12 -5
-10 -7 -10 -12 0 -9 18 -24 15 -24 -6z m78 -19 c-10 -2 -28 -2 -40 0 -13 2 -5
4 17 4 22 1 32 -1 23 -4z"/>
</g>
</svg>
